<svg width="59" height="51" viewBox="0 0 59 51" fill="none" xmlns="http://www.w3.org/2000/svg">
<path d="M29.1668 0.405518C13.0586 0.405518 0 11.5264 0 25.2424C0 26.9585 0.204168 28.6343 0.594679 30.2522C3.47733 35.18 5.47202 32.0698 14.5834 27.5429C23.8633 22.9322 14.5834 33.9823 11.3426 40.4217C10.3461 42.4018 10.8857 44.0777 12.2501 45.4509C17.0237 48.3551 22.8538 50.0808 29.1668 50.0808C45.275 50.0808 58.3336 38.9616 58.3336 25.2424C58.3336 11.5264 45.275 0.405518 29.1668 0.405518ZM33.7833 39.7617C33.1432 41.9285 29.7971 42.859 26.3085 41.84C22.8198 40.8226 20.5107 38.2436 21.1508 36.0751C21.7908 33.9082 25.1369 32.9777 28.6256 33.9984C32.1143 35.0142 34.4233 37.5932 33.7833 39.7617Z" fill="#D99E82"/>
<path d="M16.2038 17.8837C18.8885 17.8837 21.0649 15.7214 21.0649 13.0541C21.0649 10.3868 18.8885 8.22455 16.2038 8.22455C13.5191 8.22455 11.3427 10.3868 11.3427 13.0541C11.3427 15.7214 13.5191 17.8837 16.2038 17.8837Z" fill="#5C913B"/>
<path d="M32.4075 14.664C35.0923 14.664 37.2687 12.5017 37.2687 9.83445C37.2687 7.16715 35.0923 5.00488 32.4075 5.00488C29.7228 5.00488 27.5464 7.16715 27.5464 9.83445C27.5464 12.5017 29.7228 14.664 32.4075 14.664Z" fill="#226699"/>
<path d="M46.991 24.3231C49.6757 24.3231 51.8521 22.1609 51.8521 19.4936C51.8521 16.8263 49.6757 14.664 46.991 14.664C44.3063 14.664 42.1299 16.8263 42.1299 19.4936C42.1299 22.1609 44.3063 24.3231 46.991 24.3231Z" fill="#DD2E44"/>
<path d="M45.3707 38.8118C48.0554 38.8118 50.2318 36.6496 50.2318 33.9823C50.2318 31.315 48.0554 29.1527 45.3707 29.1527C42.6859 29.1527 40.5095 31.315 40.5095 33.9823C40.5095 36.6496 42.6859 38.8118 45.3707 38.8118Z" fill="#FFCC4D"/>
</svg>
