<svg width="50" height="50" viewBox="0 0 50 50" fill="none" xmlns="http://www.w3.org/2000/svg">
<path d="M22.3959 46.875H27.6459C29.6459 46.875 30.9376 45.4583 30.5626 43.7292L29.7084 39.9586H20.3335L19.4793 43.7292C19.1043 45.3542 20.521 46.875 22.3959 46.875Z" stroke="white" stroke-width="3.125" stroke-linecap="round" stroke-linejoin="round"/>
<path d="M29.7085 39.9377L33.3126 36.7291C35.3335 34.9375 35.4168 33.6875 33.8126 31.6666L27.4585 23.6041C26.1251 21.9166 23.9376 21.9166 22.6043 23.6041L16.2501 31.6666C14.646 33.6875 14.6459 35 16.7501 36.7291L20.3543 39.9377" stroke="white" stroke-width="3.125" stroke-linecap="round" stroke-linejoin="round"/>
<path d="M25.0209 23.1666V28.4375" stroke="white" stroke-width="3.125" stroke-linecap="round" stroke-linejoin="round"/>
<path d="M26.0834 10.4167H24.0001C22.8542 10.4167 21.9167 9.47919 21.9167 8.33335V6.25002C21.9167 5.10419 22.8542 4.16669 24.0001 4.16669H26.0834C27.2292 4.16669 28.1667 5.10419 28.1667 6.25002V8.33335C28.1667 9.47919 27.2292 10.4167 26.0834 10.4167Z" stroke="white" stroke-width="3.125" stroke-linecap="round" stroke-linejoin="round"/>
<path d="M6.81258 29.5208H8.89591C10.0417 29.5208 10.9792 28.5833 10.9792 27.4375V25.3541C10.9792 24.2083 10.0417 23.2708 8.89591 23.2708H6.81258C5.66675 23.2708 4.72925 24.2083 4.72925 25.3541V27.4375C4.72925 28.5833 5.66675 29.5208 6.81258 29.5208Z" stroke="white" stroke-width="3.125" stroke-linecap="round" stroke-linejoin="round"/>
<path d="M43.1874 29.5208H41.1041C39.9583 29.5208 39.0208 28.5833 39.0208 27.4375V25.3541C39.0208 24.2083 39.9583 23.2708 41.1041 23.2708H43.1874C44.3333 23.2708 45.2708 24.2083 45.2708 25.3541V27.4375C45.2708 28.5833 44.3333 29.5208 43.1874 29.5208Z" stroke="white" stroke-width="3.125" stroke-linecap="round" stroke-linejoin="round"/>
<path d="M21.9167 7.41681C13.9792 8.35431 7.8125 15.0834 7.8125 23.2709" stroke="white" stroke-width="3.125" stroke-linecap="round" stroke-linejoin="round"/>
<path d="M42.1876 23.2709C42.1876 15.1043 36.0626 8.39598 28.1667 7.41681" stroke="white" stroke-width="3.125" stroke-linecap="round" stroke-linejoin="round"/>
</svg>
